<?xml version="1.0" standalone="no"?>
<svg xmlns:xlink="http://www.w3.org/1999/xlink" id="wave" style="transform:rotate(180deg); transition: 0.3s" viewBox="0 0 1440 210" version="1.1" xmlns="http://www.w3.org/2000/svg"><defs><linearGradient id="sw-gradient-0" x1="0" x2="0" y1="1" y2="0"><stop stop-color="rgba(249, 249, 249, 1)" offset="0%"/><stop stop-color="rgba(249, 249, 249, 1)" offset="100%"/></linearGradient></defs><path style="transform:translate(0, 0px); opacity:1" fill="url(#sw-gradient-0)" d="M0,63L40,56C80,49,160,35,240,56C320,77,400,133,480,133C560,133,640,77,720,45.5C800,14,880,7,960,14C1040,21,1120,42,1200,70C1280,98,1360,133,1440,136.5C1520,140,1600,112,1680,94.5C1760,77,1840,70,1920,84C2000,98,2080,133,2160,126C2240,119,2320,70,2400,66.5C2480,63,2560,105,2640,129.5C2720,154,2800,161,2880,157.5C2960,154,3040,140,3120,129.5C3200,119,3280,112,3360,119C3440,126,3520,147,3600,154C3680,161,3760,154,3840,147C3920,140,4000,133,4080,115.5C4160,98,4240,70,4320,66.5C4400,63,4480,84,4560,77C4640,70,4720,35,4800,45.5C4880,56,4960,112,5040,133C5120,154,5200,140,5280,119C5360,98,5440,70,5520,66.5C5600,63,5680,84,5720,94.5L5760,105L5760,210L5720,210C5680,210,5600,210,5520,210C5440,210,5360,210,5280,210C5200,210,5120,210,5040,210C4960,210,4880,210,4800,210C4720,210,4640,210,4560,210C4480,210,4400,210,4320,210C4240,210,4160,210,4080,210C4000,210,3920,210,3840,210C3760,210,3680,210,3600,210C3520,210,3440,210,3360,210C3280,210,3200,210,3120,210C3040,210,2960,210,2880,210C2800,210,2720,210,2640,210C2560,210,2480,210,2400,210C2320,210,2240,210,2160,210C2080,210,2000,210,1920,210C1840,210,1760,210,1680,210C1600,210,1520,210,1440,210C1360,210,1280,210,1200,210C1120,210,1040,210,960,210C880,210,800,210,720,210C640,210,560,210,480,210C400,210,320,210,240,210C160,210,80,210,40,210L0,210Z"/></svg>